<svg id="Capa_1" data-name="Capa 1" xmlns="http://www.w3.org/2000/svg" viewBox="0 0 242.16 31.57"><defs><style>.cls-1{fill:none;stroke:#1d1d1b;stroke-miterlimit:10;}.cls-2{fill:#1d1d1b;}</style></defs><path class="cls-1" d="M37.12,31.79h-6L24,11.14,16.82,31.79h-6L0,0H7.44L14,21.38,21.06-.09h6l7.08,21.47L40.63,0h7.26Z"/><path class="cls-1" d="M53,31.57V0H76.85V6.18H59.94v6.4H74.83v6.18H59.94v6.63H77.08v6.18Z"/><path class="cls-1" d="M83.26,31.57V0h23.81V6.18H90.16v6.4h14.89v6.18H90.16v6.63H107.3v6.18Z"/><path class="cls-1" d="M133.87,31.57l-9.79-13.44-3.65,3.79v9.65h-7V0h7V13.8L133.24,0h8.38L128.77,13.39l13.44,18.18Z"/><path class="cls-2" d="M173.52,31.57l-2.89-7.08H157.28l-2.89,7.08h-7.08L160.84-.23h6.41l13.53,31.8ZM164,8.12l-4.19,10.23h8.39Z"/><path class="cls-2" d="M204.82,31.57l-6.77-10.1H192.6v10.1h-6.95V0h14.43C207.52,0,212,3.92,212,10.42v.09a9.79,9.79,0,0,1-6.77,9.78l7.72,11.28ZM205,10.78c0-3-2.07-4.51-5.45-4.51h-6.9v9.06h7c3.38,0,5.32-1.8,5.32-4.46Z"/><path class="cls-2" d="M232.56,6.4V31.57h-6.95V6.4H216V0h26.15V6.4Z"/></svg>
